<svg xmlns="http://www.w3.org/2000/svg" width="512" height="512" viewBox="0 0 192 192">
  <rect width="192" height="192" fill="#070b14"/>
  <circle cx="96" cy="96" r="68" fill="#0d1722"/>
  <path d="M96 49c-14 0-25 10-26 23-11 2-19 11-19 23 0 10 6 18 14 22 1 14 13 25 28 25 12 0 23-8 26-20 12-2 21-12 21-24 0-11-6-20-16-23-1-15-14-26-28-26Z" fill="none" stroke="#34d399" stroke-width="8" stroke-linecap="round"/>
  <path d="M75 80h17v33H75M92 96h24M116 79v35" fill="none" stroke="#34d399" stroke-width="7" stroke-linecap="round" stroke-linejoin="round"/>
</svg>
